<?xml version="1.0"?><svg viewBox="0 0 24 24" xmlns="http://www.w3.org/2000/svg"><defs><style>.a{fill:#ffbc44;}.b{fill:#ffdda1;}.c,.d{fill:none;}.c{stroke:#191919;stroke-linecap:round;stroke-linejoin:round;}</style></defs><title/><polygon class="a" points="11.992 0.5 2.5 6.598 2.5 17.4 4.5 18.951 4.5 8.097 11.992 3.042 19.5 8.097 19.5 18.951 21.5 17.4 21.5 6.598 11.992 0.5"/><polygon class="a" points="13.5 20.14 11.803 21.07 10.5 20.14 10.5 7.582 7.5 9.389 7.5 20.657 11.803 23.5 16.5 20.657 16.5 9.389 13.5 7.582 13.5 20.14"/><polygon class="a" points="2.5 6.598 2.5 17.4 4.5 18.951 4.5 8.097 4.683 7.974 2.519 6.586 2.5 6.598"/><polygon class="a" points="19.5 8.097 19.5 18.951 21.5 17.4 21.5 6.598 21.481 6.586 19.318 7.975 19.5 8.097"/><polygon class="a" points="13.5 20.14 11.803 21.07 10.5 20.14 10.5 11.705 7.5 9.78 7.5 20.657 11.803 23.5 16.5 20.657 16.5 9.786 13.5 11.713 13.5 20.14"/><polygon class="b" points="2.519 6.586 4.683 7.974 11.992 3.042 19.318 7.975 21.481 6.586 11.992 0.5 2.519 6.586"/><polygon class="b" points="13.5 7.582 13.5 11.713 16.5 9.786 16.5 9.389 13.5 7.582"/><polygon class="b" points="10.5 7.582 7.5 9.389 7.5 9.78 10.5 11.705 10.5 7.582"/><polygon class="c" points="11.992 0.5 2.5 6.598 2.5 17.4 4.5 18.951 4.5 8.097 11.992 3.042 19.5 8.097 19.5 18.951 21.5 17.4 21.5 6.598 11.992 0.5"/><polygon class="c" points="13.5 20.14 11.803 21.07 10.5 20.14 10.5 7.582 7.5 9.389 7.5 20.657 11.803 23.5 16.5 20.657 16.5 9.389 13.5 7.582 13.5 20.14"/><polygon class="d" points="11.803 21.07 13.5 20.14 13.5 11.713 12.008 12.672 10.5 11.705 10.5 20.14 11.803 21.07"/></svg>